<svg xmlns="http://www.w3.org/2000/svg" viewBox="0 0 512 512">
  <rect x="56" y="96" width="400" height="320" rx="16" fill="none" stroke="#fff" stroke-width="24"/>
  <rect x="80" y="96" width="48" height="192" rx="4" fill="none" stroke="#fff" stroke-width="12"/>
  <rect x="128" y="96" width="48" height="192" rx="4" fill="none" stroke="#fff" stroke-width="12"/>
  <rect x="176" y="96" width="48" height="192" rx="4" fill="none" stroke="#fff" stroke-width="12"/>
  <rect x="224" y="96" width="48" height="192" rx="4" fill="none" stroke="#fff" stroke-width="12"/>
  <rect x="272" y="96" width="48" height="192" rx="4" fill="none" stroke="#fff" stroke-width="12"/>
  <rect x="320" y="96" width="48" height="192" rx="4" fill="none" stroke="#fff" stroke-width="12"/>
  <rect x="368" y="96" width="48" height="192" rx="4" fill="none" stroke="#fff" stroke-width="12"/>
  <rect x="112" y="96" width="32" height="120" rx="4" fill="#fff"/>
  <rect x="168" y="96" width="32" height="120" rx="4" fill="#fff"/>
  <rect x="280" y="96" width="32" height="120" rx="4" fill="#fff"/>
  <rect x="336" y="96" width="32" height="120" rx="4" fill="#fff"/>
  <rect x="392" y="96" width="32" height="120" rx="4" fill="#fff"/>
</svg>
